<svg xmlns="http://www.w3.org/2000/svg" viewBox="0 0 860 200" width="860" height="200">
  <style>
    .bg { fill: transparent; }
    .title-stat { font-family: "SFMono-Regular", Consolas, monospace; font-size: 14px; fill: #ffffff; font-weight: bold; }
    .label { font-family: "SFMono-Regular", Consolas, monospace; font-size: 11px; fill: #7d8590; }
    .box { rx: 2px; ry: 2px; opacity: 0; animation: slideDown 0.3s ease-out forwards; }
    @keyframes slideDown { from { opacity: 0; transform: translateY(-8px); } to { opacity: 1; transform: translateY(0); } }
  </style>
  <text class="label" x="35" y="20">Jul</text>
  <text class="label" x="95" y="20">Aug</text>
  <text class="label" x="155" y="20">Sep</text>
  <text class="label" x="215" y="20">Oct</text>
  <text class="label" x="275" y="20">Nov</text>
  <text class="label" x="335" y="20">Dec</text>
  <text class="label" x="395" y="20">Jan</text>
  <text class="label" x="455" y="20">Feb</text>
  <text class="label" x="515" y="20">Mar</text>
  <text class="label" x="575" y="20">Apr</text>
  <text class="label" x="635" y="20">May</text>
  <text class="label" x="695" y="20">Jun</text>
  <text class="label" x="755" y="20">Jul</text>
  <text class="label" x="5" y="59">Mon</text>
  <text class="label" x="5" y="89">Wed</text>
  <text class="label" x="5" y="119">Fri</text>
  <rect class="box" x="35" y="35" width="11" height="11" fill="#161b22" style="animation-delay: 0.050s;" />
  <rect class="box" x="35" y="50" width="11" height="11" fill="#006d32" style="animation-delay: 0.062s;" />
  <rect class="box" x="35" y="65" width="11" height="11" fill="#161b22" style="animation-delay: 0.074s;" />
  <rect class="box" x="35" y="80" width="11" height="11" fill="#0e4429" style="animation-delay: 0.086s;" />
  <rect class="box" x="35" y="95" width="11" height="11" fill="#0e4429" style="animation-delay: 0.098s;" />
  <rect class="box" x="35" y="110" width="11" height="11" fill="#0e4429" style="animation-delay: 0.110s;" />
  <rect class="box" x="35" y="125" width="11" height="11" fill="#161b22" style="animation-delay: 0.122s;" />
  <rect class="box" x="50" y="35" width="11" height="11" fill="#0e4429" style="animation-delay: 0.062s;" />
  <rect class="box" x="50" y="50" width="11" height="11" fill="#0e4429" style="animation-delay: 0.074s;" />
  <rect class="box" x="50" y="65" width="11" height="11" fill="#0e4429" style="animation-delay: 0.086s;" />
  <rect class="box" x="50" y="80" width="11" height="11" fill="#0e4429" style="animation-delay: 0.098s;" />
  <rect class="box" x="50" y="95" width="11" height="11" fill="#0e4429" style="animation-delay: 0.110s;" />
  <rect class="box" x="50" y="110" width="11" height="11" fill="#0e4429" style="animation-delay: 0.122s;" />
  <rect class="box" x="50" y="125" width="11" height="11" fill="#0e4429" style="animation-delay: 0.134s;" />
  <rect class="box" x="65" y="35" width="11" height="11" fill="#0e4429" style="animation-delay: 0.074s;" />
  <rect class="box" x="65" y="50" width="11" height="11" fill="#161b22" style="animation-delay: 0.086s;" />
  <rect class="box" x="65" y="65" width="11" height="11" fill="#0e4429" style="animation-delay: 0.098s;" />
  <rect class="box" x="65" y="80" width="11" height="11" fill="#0e4429" style="animation-delay: 0.110s;" />
  <rect class="box" x="65" y="95" width="11" height="11" fill="#0e4429" style="animation-delay: 0.122s;" />
  <rect class="box" x="65" y="110" width="11" height="11" fill="#0e4429" style="animation-delay: 0.134s;" />
  <rect class="box" x="65" y="125" width="11" height="11" fill="#0e4429" style="animation-delay: 0.146s;" />
  <rect class="box" x="80" y="35" width="11" height="11" fill="#161b22" style="animation-delay: 0.086s;" />
  <rect class="box" x="80" y="50" width="11" height="11" fill="#0e4429" style="animation-delay: 0.098s;" />
  <rect class="box" x="80" y="65" width="11" height="11" fill="#0e4429" style="animation-delay: 0.110s;" />
  <rect class="box" x="80" y="80" width="11" height="11" fill="#0e4429" style="animation-delay: 0.122s;" />
  <rect class="box" x="80" y="95" width="11" height="11" fill="#0e4429" style="animation-delay: 0.134s;" />
  <rect class="box" x="80" y="110" width="11" height="11" fill="#0e4429" style="animation-delay: 0.146s;" />
  <rect class="box" x="80" y="125" width="11" height="11" fill="#0e4429" style="animation-delay: 0.158s;" />
  <rect class="box" x="95" y="35" width="11" height="11" fill="#161b22" style="animation-delay: 0.098s;" />
  <rect class="box" x="95" y="50" width="11" height="11" fill="#0e4429" style="animation-delay: 0.110s;" />
  <rect class="box" x="95" y="65" width="11" height="11" fill="#0e4429" style="animation-delay: 0.122s;" />
  <rect class="box" x="95" y="80" width="11" height="11" fill="#0e4429" style="animation-delay: 0.134s;" />
  <rect class="box" x="95" y="95" width="11" height="11" fill="#161b22" style="animation-delay: 0.146s;" />
  <rect class="box" x="95" y="110" width="11" height="11" fill="#161b22" style="animation-delay: 0.158s;" />
  <rect class="box" x="95" y="125" width="11" height="11" fill="#006d32" style="animation-delay: 0.170s;" />
  <rect class="box" x="110" y="35" width="11" height="11" fill="#161b22" style="animation-delay: 0.110s;" />
  <rect class="box" x="110" y="50" width="11" height="11" fill="#006d32" style="animation-delay: 0.122s;" />
  <rect class="box" x="110" y="65" width="11" height="11" fill="#0e4429" style="animation-delay: 0.134s;" />
  <rect class="box" x="110" y="80" width="11" height="11" fill="#161b22" style="animation-delay: 0.146s;" />
  <rect class="box" x="110" y="95" width="11" height="11" fill="#0e4429" style="animation-delay: 0.158s;" />
  <rect class="box" x="110" y="110" width="11" height="11" fill="#161b22" style="animation-delay: 0.170s;" />
  <rect class="box" x="110" y="125" width="11" height="11" fill="#161b22" style="animation-delay: 0.182s;" />
  <rect class="box" x="125" y="35" width="11" height="11" fill="#0e4429" style="animation-delay: 0.122s;" />
  <rect class="box" x="125" y="50" width="11" height="11" fill="#006d32" style="animation-delay: 0.134s;" />
  <rect class="box" x="125" y="65" width="11" height="11" fill="#161b22" style="animation-delay: 0.146s;" />
  <rect class="box" x="125" y="80" width="11" height="11" fill="#0e4429" style="animation-delay: 0.158s;" />
  <rect class="box" x="125" y="95" width="11" height="11" fill="#0e4429" style="animation-delay: 0.170s;" />
  <rect class="box" x="125" y="110" width="11" height="11" fill="#0e4429" style="animation-delay: 0.182s;" />
  <rect class="box" x="125" y="125" width="11" height="11" fill="#0e4429" style="animation-delay: 0.194s;" />
  <rect class="box" x="140" y="35" width="11" height="11" fill="#0e4429" style="animation-delay: 0.134s;" />
  <rect class="box" x="140" y="50" width="11" height="11" fill="#0e4429" style="animation-delay: 0.146s;" />
  <rect class="box" x="140" y="65" width="11" height="11" fill="#0e4429" style="animation-delay: 0.158s;" />
  <rect class="box" x="140" y="80" width="11" height="11" fill="#0e4429" style="animation-delay: 0.170s;" />
  <rect class="box" x="140" y="95" width="11" height="11" fill="#006d32" style="animation-delay: 0.182s;" />
  <rect class="box" x="140" y="110" width="11" height="11" fill="#0e4429" style="animation-delay: 0.194s;" />
  <rect class="box" x="140" y="125" width="11" height="11" fill="#161b22" style="animation-delay: 0.206s;" />
  <rect class="box" x="155" y="35" width="11" height="11" fill="#0e4429" style="animation-delay: 0.146s;" />
  <rect class="box" x="155" y="50" width="11" height="11" fill="#0e4429" style="animation-delay: 0.158s;" />
  <rect class="box" x="155" y="65" width="11" height="11" fill="#161b22" style="animation-delay: 0.170s;" />
  <rect class="box" x="155" y="80" width="11" height="11" fill="#0e4429" style="animation-delay: 0.182s;" />
  <rect class="box" x="155" y="95" width="11" height="11" fill="#0e4429" style="animation-delay: 0.194s;" />
  <rect class="box" x="155" y="110" width="11" height="11" fill="#0e4429" style="animation-delay: 0.206s;" />
  <rect class="box" x="155" y="125" width="11" height="11" fill="#0e4429" style="animation-delay: 0.218s;" />
  <rect class="box" x="170" y="35" width="11" height="11" fill="#161b22" style="animation-delay: 0.158s;" />
  <rect class="box" x="170" y="50" width="11" height="11" fill="#161b22" style="animation-delay: 0.170s;" />
  <rect class="box" x="170" y="65" width="11" height="11" fill="#161b22" style="animation-delay: 0.182s;" />
  <rect class="box" x="170" y="80" width="11" height="11" fill="#161b22" style="animation-delay: 0.194s;" />
  <rect class="box" x="170" y="95" width="11" height="11" fill="#0e4429" style="animation-delay: 0.206s;" />
  <rect class="box" x="170" y="110" width="11" height="11" fill="#0e4429" style="animation-delay: 0.218s;" />
  <rect class="box" x="170" y="125" width="11" height="11" fill="#0e4429" style="animation-delay: 0.230s;" />
  <rect class="box" x="185" y="35" width="11" height="11" fill="#0e4429" style="animation-delay: 0.170s;" />
  <rect class="box" x="185" y="50" width="11" height="11" fill="#161b22" style="animation-delay: 0.182s;" />
  <rect class="box" x="185" y="65" width="11" height="11" fill="#0e4429" style="animation-delay: 0.194s;" />
  <rect class="box" x="185" y="80" width="11" height="11" fill="#0e4429" style="animation-delay: 0.206s;" />
  <rect class="box" x="185" y="95" width="11" height="11" fill="#0e4429" style="animation-delay: 0.218s;" />
  <rect class="box" x="185" y="110" width="11" height="11" fill="#161b22" style="animation-delay: 0.230s;" />
  <rect class="box" x="185" y="125" width="11" height="11" fill="#0e4429" style="animation-delay: 0.242s;" />
  <rect class="box" x="200" y="35" width="11" height="11" fill="#26a641" style="animation-delay: 0.182s;" />
  <rect class="box" x="200" y="50" width="11" height="11" fill="#161b22" style="animation-delay: 0.194s;" />
  <rect class="box" x="200" y="65" width="11" height="11" fill="#006d32" style="animation-delay: 0.206s;" />
  <rect class="box" x="200" y="80" width="11" height="11" fill="#006d32" style="animation-delay: 0.218s;" />
  <rect class="box" x="200" y="95" width="11" height="11" fill="#0e4429" style="animation-delay: 0.230s;" />
  <rect class="box" x="200" y="110" width="11" height="11" fill="#0e4429" style="animation-delay: 0.242s;" />
  <rect class="box" x="200" y="125" width="11" height="11" fill="#0e4429" style="animation-delay: 0.254s;" />
  <rect class="box" x="215" y="35" width="11" height="11" fill="#161b22" style="animation-delay: 0.194s;" />
  <rect class="box" x="215" y="50" width="11" height="11" fill="#161b22" style="animation-delay: 0.206s;" />
  <rect class="box" x="215" y="65" width="11" height="11" fill="#161b22" style="animation-delay: 0.218s;" />
  <rect class="box" x="215" y="80" width="11" height="11" fill="#161b22" style="animation-delay: 0.230s;" />
  <rect class="box" x="215" y="95" width="11" height="11" fill="#161b22" style="animation-delay: 0.242s;" />
  <rect class="box" x="215" y="110" width="11" height="11" fill="#0e4429" style="animation-delay: 0.254s;" />
  <rect class="box" x="215" y="125" width="11" height="11" fill="#161b22" style="animation-delay: 0.266s;" />
  <rect class="box" x="230" y="35" width="11" height="11" fill="#161b22" style="animation-delay: 0.206s;" />
  <rect class="box" x="230" y="50" width="11" height="11" fill="#161b22" style="animation-delay: 0.218s;" />
  <rect class="box" x="230" y="65" width="11" height="11" fill="#161b22" style="animation-delay: 0.230s;" />
  <rect class="box" x="230" y="80" width="11" height="11" fill="#0e4429" style="animation-delay: 0.242s;" />
  <rect class="box" x="230" y="95" width="11" height="11" fill="#161b22" style="animation-delay: 0.254s;" />
  <rect class="box" x="230" y="110" width="11" height="11" fill="#161b22" style="animation-delay: 0.266s;" />
  <rect class="box" x="230" y="125" width="11" height="11" fill="#161b22" style="animation-delay: 0.278s;" />
  <rect class="box" x="245" y="35" width="11" height="11" fill="#006d32" style="animation-delay: 0.218s;" />
  <rect class="box" x="245" y="50" width="11" height="11" fill="#0e4429" style="animation-delay: 0.230s;" />
  <rect class="box" x="245" y="65" width="11" height="11" fill="#0e4429" style="animation-delay: 0.242s;" />
  <rect class="box" x="245" y="80" width="11" height="11" fill="#39d353" style="animation-delay: 0.254s;" />
  <rect class="box" x="245" y="95" width="11" height="11" fill="#0e4429" style="animation-delay: 0.266s;" />
  <rect class="box" x="245" y="110" width="11" height="11" fill="#0e4429" style="animation-delay: 0.278s;" />
  <rect class="box" x="245" y="125" width="11" height="11" fill="#0e4429" style="animation-delay: 0.290s;" />
  <rect class="box" x="260" y="35" width="11" height="11" fill="#161b22" style="animation-delay: 0.230s;" />
  <rect class="box" x="260" y="50" width="11" height="11" fill="#0e4429" style="animation-delay: 0.242s;" />
  <rect class="box" x="260" y="65" width="11" height="11" fill="#0e4429" style="animation-delay: 0.254s;" />
  <rect class="box" x="260" y="80" width="11" height="11" fill="#0e4429" style="animation-delay: 0.266s;" />
  <rect class="box" x="260" y="95" width="11" height="11" fill="#0e4429" style="animation-delay: 0.278s;" />
  <rect class="box" x="260" y="110" width="11" height="11" fill="#0e4429" style="animation-delay: 0.290s;" />
  <rect class="box" x="260" y="125" width="11" height="11" fill="#0e4429" style="animation-delay: 0.302s;" />
  <rect class="box" x="275" y="35" width="11" height="11" fill="#006d32" style="animation-delay: 0.242s;" />
  <rect class="box" x="275" y="50" width="11" height="11" fill="#0e4429" style="animation-delay: 0.254s;" />
  <rect class="box" x="275" y="65" width="11" height="11" fill="#006d32" style="animation-delay: 0.266s;" />
  <rect class="box" x="275" y="80" width="11" height="11" fill="#0e4429" style="animation-delay: 0.278s;" />
  <rect class="box" x="275" y="95" width="11" height="11" fill="#006d32" style="animation-delay: 0.290s;" />
  <rect class="box" x="275" y="110" width="11" height="11" fill="#161b22" style="animation-delay: 0.302s;" />
  <rect class="box" x="275" y="125" width="11" height="11" fill="#0e4429" style="animation-delay: 0.314s;" />
  <rect class="box" x="290" y="35" width="11" height="11" fill="#0e4429" style="animation-delay: 0.254s;" />
  <rect class="box" x="290" y="50" width="11" height="11" fill="#0e4429" style="animation-delay: 0.266s;" />
  <rect class="box" x="290" y="65" width="11" height="11" fill="#161b22" style="animation-delay: 0.278s;" />
  <rect class="box" x="290" y="80" width="11" height="11" fill="#0e4429" style="animation-delay: 0.290s;" />
  <rect class="box" x="290" y="95" width="11" height="11" fill="#161b22" style="animation-delay: 0.302s;" />
  <rect class="box" x="290" y="110" width="11" height="11" fill="#161b22" style="animation-delay: 0.314s;" />
  <rect class="box" x="290" y="125" width="11" height="11" fill="#161b22" style="animation-delay: 0.326s;" />
  <rect class="box" x="305" y="35" width="11" height="11" fill="#0e4429" style="animation-delay: 0.266s;" />
  <rect class="box" x="305" y="50" width="11" height="11" fill="#0e4429" style="animation-delay: 0.278s;" />
  <rect class="box" x="305" y="65" width="11" height="11" fill="#0e4429" style="animation-delay: 0.290s;" />
  <rect class="box" x="305" y="80" width="11" height="11" fill="#0e4429" style="animation-delay: 0.302s;" />
  <rect class="box" x="305" y="95" width="11" height="11" fill="#0e4429" style="animation-delay: 0.314s;" />
  <rect class="box" x="305" y="110" width="11" height="11" fill="#006d32" style="animation-delay: 0.326s;" />
  <rect class="box" x="305" y="125" width="11" height="11" fill="#39d353" style="animation-delay: 0.338s;" />
  <rect class="box" x="320" y="35" width="11" height="11" fill="#161b22" style="animation-delay: 0.278s;" />
  <rect class="box" x="320" y="50" width="11" height="11" fill="#0e4429" style="animation-delay: 0.290s;" />
  <rect class="box" x="320" y="65" width="11" height="11" fill="#161b22" style="animation-delay: 0.302s;" />
  <rect class="box" x="320" y="80" width="11" height="11" fill="#0e4429" style="animation-delay: 0.314s;" />
  <rect class="box" x="320" y="95" width="11" height="11" fill="#161b22" style="animation-delay: 0.326s;" />
  <rect class="box" x="320" y="110" width="11" height="11" fill="#161b22" style="animation-delay: 0.338s;" />
  <rect class="box" x="320" y="125" width="11" height="11" fill="#161b22" style="animation-delay: 0.350s;" />
  <rect class="box" x="335" y="35" width="11" height="11" fill="#0e4429" style="animation-delay: 0.290s;" />
  <rect class="box" x="335" y="50" width="11" height="11" fill="#161b22" style="animation-delay: 0.302s;" />
  <rect class="box" x="335" y="65" width="11" height="11" fill="#161b22" style="animation-delay: 0.314s;" />
  <rect class="box" x="335" y="80" width="11" height="11" fill="#161b22" style="animation-delay: 0.326s;" />
  <rect class="box" x="335" y="95" width="11" height="11" fill="#0e4429" style="animation-delay: 0.338s;" />
  <rect class="box" x="335" y="110" width="11" height="11" fill="#161b22" style="animation-delay: 0.350s;" />
  <rect class="box" x="335" y="125" width="11" height="11" fill="#161b22" style="animation-delay: 0.362s;" />
  <rect class="box" x="350" y="35" width="11" height="11" fill="#161b22" style="animation-delay: 0.302s;" />
  <rect class="box" x="350" y="50" width="11" height="11" fill="#161b22" style="animation-delay: 0.314s;" />
  <rect class="box" x="350" y="65" width="11" height="11" fill="#161b22" style="animation-delay: 0.326s;" />
  <rect class="box" x="350" y="80" width="11" height="11" fill="#161b22" style="animation-delay: 0.338s;" />
  <rect class="box" x="350" y="95" width="11" height="11" fill="#26a641" style="animation-delay: 0.350s;" />
  <rect class="box" x="350" y="110" width="11" height="11" fill="#0e4429" style="animation-delay: 0.362s;" />
  <rect class="box" x="350" y="125" width="11" height="11" fill="#0e4429" style="animation-delay: 0.374s;" />
  <rect class="box" x="365" y="35" width="11" height="11" fill="#0e4429" style="animation-delay: 0.314s;" />
  <rect class="box" x="365" y="50" width="11" height="11" fill="#0e4429" style="animation-delay: 0.326s;" />
  <rect class="box" x="365" y="65" width="11" height="11" fill="#0e4429" style="animation-delay: 0.338s;" />
  <rect class="box" x="365" y="80" width="11" height="11" fill="#0e4429" style="animation-delay: 0.350s;" />
  <rect class="box" x="365" y="95" width="11" height="11" fill="#006d32" style="animation-delay: 0.362s;" />
  <rect class="box" x="365" y="110" width="11" height="11" fill="#0e4429" style="animation-delay: 0.374s;" />
  <rect class="box" x="365" y="125" width="11" height="11" fill="#0e4429" style="animation-delay: 0.386s;" />
  <rect class="box" x="380" y="35" width="11" height="11" fill="#161b22" style="animation-delay: 0.326s;" />
  <rect class="box" x="380" y="50" width="11" height="11" fill="#0e4429" style="animation-delay: 0.338s;" />
  <rect class="box" x="380" y="65" width="11" height="11" fill="#0e4429" style="animation-delay: 0.350s;" />
  <rect class="box" x="380" y="80" width="11" height="11" fill="#006d32" style="animation-delay: 0.362s;" />
  <rect class="box" x="380" y="95" width="11" height="11" fill="#0e4429" style="animation-delay: 0.374s;" />
  <rect class="box" x="380" y="110" width="11" height="11" fill="#161b22" style="animation-delay: 0.386s;" />
  <rect class="box" x="380" y="125" width="11" height="11" fill="#0e4429" style="animation-delay: 0.398s;" />
  <rect class="box" x="395" y="35" width="11" height="11" fill="#161b22" style="animation-delay: 0.338s;" />
  <rect class="box" x="395" y="50" width="11" height="11" fill="#161b22" style="animation-delay: 0.350s;" />
  <rect class="box" x="395" y="65" width="11" height="11" fill="#161b22" style="animation-delay: 0.362s;" />
  <rect class="box" x="395" y="80" width="11" height="11" fill="#0e4429" style="animation-delay: 0.374s;" />
  <rect class="box" x="395" y="95" width="11" height="11" fill="#0e4429" style="animation-delay: 0.386s;" />
  <rect class="box" x="395" y="110" width="11" height="11" fill="#161b22" style="animation-delay: 0.398s;" />
  <rect class="box" x="395" y="125" width="11" height="11" fill="#0e4429" style="animation-delay: 0.410s;" />
  <rect class="box" x="410" y="35" width="11" height="11" fill="#161b22" style="animation-delay: 0.350s;" />
  <rect class="box" x="410" y="50" width="11" height="11" fill="#161b22" style="animation-delay: 0.362s;" />
  <rect class="box" x="410" y="65" width="11" height="11" fill="#161b22" style="animation-delay: 0.374s;" />
  <rect class="box" x="410" y="80" width="11" height="11" fill="#0e4429" style="animation-delay: 0.386s;" />
  <rect class="box" x="410" y="95" width="11" height="11" fill="#161b22" style="animation-delay: 0.398s;" />
  <rect class="box" x="410" y="110" width="11" height="11" fill="#161b22" style="animation-delay: 0.410s;" />
  <rect class="box" x="410" y="125" width="11" height="11" fill="#0e4429" style="animation-delay: 0.422s;" />
  <rect class="box" x="425" y="35" width="11" height="11" fill="#006d32" style="animation-delay: 0.362s;" />
  <rect class="box" x="425" y="50" width="11" height="11" fill="#0e4429" style="animation-delay: 0.374s;" />
  <rect class="box" x="425" y="65" width="11" height="11" fill="#0e4429" style="animation-delay: 0.386s;" />
  <rect class="box" x="425" y="80" width="11" height="11" fill="#161b22" style="animation-delay: 0.398s;" />
  <rect class="box" x="425" y="95" width="11" height="11" fill="#006d32" style="animation-delay: 0.410s;" />
  <rect class="box" x="425" y="110" width="11" height="11" fill="#0e4429" style="animation-delay: 0.422s;" />
  <rect class="box" x="425" y="125" width="11" height="11" fill="#006d32" style="animation-delay: 0.434s;" />
  <rect class="box" x="440" y="35" width="11" height="11" fill="#161b22" style="animation-delay: 0.374s;" />
  <rect class="box" x="440" y="50" width="11" height="11" fill="#006d32" style="animation-delay: 0.386s;" />
  <rect class="box" x="440" y="65" width="11" height="11" fill="#161b22" style="animation-delay: 0.398s;" />
  <rect class="box" x="440" y="80" width="11" height="11" fill="#0e4429" style="animation-delay: 0.410s;" />
  <rect class="box" x="440" y="95" width="11" height="11" fill="#161b22" style="animation-delay: 0.422s;" />
  <rect class="box" x="440" y="110" width="11" height="11" fill="#161b22" style="animation-delay: 0.434s;" />
  <rect class="box" x="440" y="125" width="11" height="11" fill="#006d32" style="animation-delay: 0.446s;" />
  <rect class="box" x="455" y="35" width="11" height="11" fill="#0e4429" style="animation-delay: 0.386s;" />
  <rect class="box" x="455" y="50" width="11" height="11" fill="#161b22" style="animation-delay: 0.398s;" />
  <rect class="box" x="455" y="65" width="11" height="11" fill="#0e4429" style="animation-delay: 0.410s;" />
  <rect class="box" x="455" y="80" width="11" height="11" fill="#161b22" style="animation-delay: 0.422s;" />
  <rect class="box" x="455" y="95" width="11" height="11" fill="#161b22" style="animation-delay: 0.434s;" />
  <rect class="box" x="455" y="110" width="11" height="11" fill="#161b22" style="animation-delay: 0.446s;" />
  <rect class="box" x="455" y="125" width="11" height="11" fill="#161b22" style="animation-delay: 0.458s;" />
  <rect class="box" x="470" y="35" width="11" height="11" fill="#006d32" style="animation-delay: 0.398s;" />
  <rect class="box" x="470" y="50" width="11" height="11" fill="#0e4429" style="animation-delay: 0.410s;" />
  <rect class="box" x="470" y="65" width="11" height="11" fill="#0e4429" style="animation-delay: 0.422s;" />
  <rect class="box" x="470" y="80" width="11" height="11" fill="#39d353" style="animation-delay: 0.434s;" />
  <rect class="box" x="470" y="95" width="11" height="11" fill="#0e4429" style="animation-delay: 0.446s;" />
  <rect class="box" x="470" y="110" width="11" height="11" fill="#0e4429" style="animation-delay: 0.458s;" />
  <rect class="box" x="470" y="125" width="11" height="11" fill="#0e4429" style="animation-delay: 0.470s;" />
  <rect class="box" x="485" y="35" width="11" height="11" fill="#161b22" style="animation-delay: 0.410s;" />
  <rect class="box" x="485" y="50" width="11" height="11" fill="#0e4429" style="animation-delay: 0.422s;" />
  <rect class="box" x="485" y="65" width="11" height="11" fill="#0e4429" style="animation-delay: 0.434s;" />
  <rect class="box" x="485" y="80" width="11" height="11" fill="#0e4429" style="animation-delay: 0.446s;" />
  <rect class="box" x="485" y="95" width="11" height="11" fill="#006d32" style="animation-delay: 0.458s;" />
  <rect class="box" x="485" y="110" width="11" height="11" fill="#0e4429" style="animation-delay: 0.470s;" />
  <rect class="box" x="485" y="125" width="11" height="11" fill="#0e4429" style="animation-delay: 0.482s;" />
  <rect class="box" x="500" y="35" width="11" height="11" fill="#006d32" style="animation-delay: 0.422s;" />
  <rect class="box" x="500" y="50" width="11" height="11" fill="#006d32" style="animation-delay: 0.434s;" />
  <rect class="box" x="500" y="65" width="11" height="11" fill="#0e4429" style="animation-delay: 0.446s;" />
  <rect class="box" x="500" y="80" width="11" height="11" fill="#161b22" style="animation-delay: 0.458s;" />
  <rect class="box" x="500" y="95" width="11" height="11" fill="#0e4429" style="animation-delay: 0.470s;" />
  <rect class="box" x="500" y="110" width="11" height="11" fill="#0e4429" style="animation-delay: 0.482s;" />
  <rect class="box" x="500" y="125" width="11" height="11" fill="#006d32" style="animation-delay: 0.494s;" />
  <rect class="box" x="515" y="35" width="11" height="11" fill="#0e4429" style="animation-delay: 0.434s;" />
  <rect class="box" x="515" y="50" width="11" height="11" fill="#0e4429" style="animation-delay: 0.446s;" />
  <rect class="box" x="515" y="65" width="11" height="11" fill="#39d353" style="animation-delay: 0.458s;" />
  <rect class="box" x="515" y="80" width="11" height="11" fill="#161b22" style="animation-delay: 0.470s;" />
  <rect class="box" x="515" y="95" width="11" height="11" fill="#0e4429" style="animation-delay: 0.482s;" />
  <rect class="box" x="515" y="110" width="11" height="11" fill="#0e4429" style="animation-delay: 0.494s;" />
  <rect class="box" x="515" y="125" width="11" height="11" fill="#0e4429" style="animation-delay: 0.506s;" />
  <rect class="box" x="530" y="35" width="11" height="11" fill="#161b22" style="animation-delay: 0.446s;" />
  <rect class="box" x="530" y="50" width="11" height="11" fill="#006d32" style="animation-delay: 0.458s;" />
  <rect class="box" x="530" y="65" width="11" height="11" fill="#006d32" style="animation-delay: 0.470s;" />
  <rect class="box" x="530" y="80" width="11" height="11" fill="#0e4429" style="animation-delay: 0.482s;" />
  <rect class="box" x="530" y="95" width="11" height="11" fill="#006d32" style="animation-delay: 0.494s;" />
  <rect class="box" x="530" y="110" width="11" height="11" fill="#006d32" style="animation-delay: 0.506s;" />
  <rect class="box" x="530" y="125" width="11" height="11" fill="#006d32" style="animation-delay: 0.518s;" />
  <rect class="box" x="545" y="35" width="11" height="11" fill="#0e4429" style="animation-delay: 0.458s;" />
  <rect class="box" x="545" y="50" width="11" height="11" fill="#0e4429" style="animation-delay: 0.470s;" />
  <rect class="box" x="545" y="65" width="11" height="11" fill="#161b22" style="animation-delay: 0.482s;" />
  <rect class="box" x="545" y="80" width="11" height="11" fill="#0e4429" style="animation-delay: 0.494s;" />
  <rect class="box" x="545" y="95" width="11" height="11" fill="#006d32" style="animation-delay: 0.506s;" />
  <rect class="box" x="545" y="110" width="11" height="11" fill="#161b22" style="animation-delay: 0.518s;" />
  <rect class="box" x="545" y="125" width="11" height="11" fill="#161b22" style="animation-delay: 0.530s;" />
  <rect class="box" x="560" y="35" width="11" height="11" fill="#006d32" style="animation-delay: 0.470s;" />
  <rect class="box" x="560" y="50" width="11" height="11" fill="#0e4429" style="animation-delay: 0.482s;" />
  <rect class="box" x="560" y="65" width="11" height="11" fill="#006d32" style="animation-delay: 0.494s;" />
  <rect class="box" x="560" y="80" width="11" height="11" fill="#0e4429" style="animation-delay: 0.506s;" />
  <rect class="box" x="560" y="95" width="11" height="11" fill="#0e4429" style="animation-delay: 0.518s;" />
  <rect class="box" x="560" y="110" width="11" height="11" fill="#161b22" style="animation-delay: 0.530s;" />
  <rect class="box" x="560" y="125" width="11" height="11" fill="#161b22" style="animation-delay: 0.542s;" />
  <rect class="box" x="575" y="35" width="11" height="11" fill="#161b22" style="animation-delay: 0.482s;" />
  <rect class="box" x="575" y="50" width="11" height="11" fill="#161b22" style="animation-delay: 0.494s;" />
  <rect class="box" x="575" y="65" width="11" height="11" fill="#161b22" style="animation-delay: 0.506s;" />
  <rect class="box" x="575" y="80" width="11" height="11" fill="#006d32" style="animation-delay: 0.518s;" />
  <rect class="box" x="575" y="95" width="11" height="11" fill="#0e4429" style="animation-delay: 0.530s;" />
  <rect class="box" x="575" y="110" width="11" height="11" fill="#0e4429" style="animation-delay: 0.542s;" />
  <rect class="box" x="575" y="125" width="11" height="11" fill="#0e4429" style="animation-delay: 0.554s;" />
  <rect class="box" x="590" y="35" width="11" height="11" fill="#0e4429" style="animation-delay: 0.494s;" />
  <rect class="box" x="590" y="50" width="11" height="11" fill="#0e4429" style="animation-delay: 0.506s;" />
  <rect class="box" x="590" y="65" width="11" height="11" fill="#006d32" style="animation-delay: 0.518s;" />
  <rect class="box" x="590" y="80" width="11" height="11" fill="#0e4429" style="animation-delay: 0.530s;" />
  <rect class="box" x="590" y="95" width="11" height="11" fill="#39d353" style="animation-delay: 0.542s;" />
  <rect class="box" x="590" y="110" width="11" height="11" fill="#161b22" style="animation-delay: 0.554s;" />
  <rect class="box" x="590" y="125" width="11" height="11" fill="#006d32" style="animation-delay: 0.566s;" />
  <rect class="box" x="605" y="35" width="11" height="11" fill="#006d32" style="animation-delay: 0.506s;" />
  <rect class="box" x="605" y="50" width="11" height="11" fill="#161b22" style="animation-delay: 0.518s;" />
  <rect class="box" x="605" y="65" width="11" height="11" fill="#0e4429" style="animation-delay: 0.530s;" />
  <rect class="box" x="605" y="80" width="11" height="11" fill="#161b22" style="animation-delay: 0.542s;" />
  <rect class="box" x="605" y="95" width="11" height="11" fill="#161b22" style="animation-delay: 0.554s;" />
  <rect class="box" x="605" y="110" width="11" height="11" fill="#161b22" style="animation-delay: 0.566s;" />
  <rect class="box" x="605" y="125" width="11" height="11" fill="#0e4429" style="animation-delay: 0.578s;" />
  <rect class="box" x="620" y="35" width="11" height="11" fill="#0e4429" style="animation-delay: 0.518s;" />
  <rect class="box" x="620" y="50" width="11" height="11" fill="#0e4429" style="animation-delay: 0.530s;" />
  <rect class="box" x="620" y="65" width="11" height="11" fill="#006d32" style="animation-delay: 0.542s;" />
  <rect class="box" x="620" y="80" width="11" height="11" fill="#161b22" style="animation-delay: 0.554s;" />
  <rect class="box" x="620" y="95" width="11" height="11" fill="#006d32" style="animation-delay: 0.566s;" />
  <rect class="box" x="620" y="110" width="11" height="11" fill="#0e4429" style="animation-delay: 0.578s;" />
  <rect class="box" x="620" y="125" width="11" height="11" fill="#161b22" style="animation-delay: 0.590s;" />
  <rect class="box" x="635" y="35" width="11" height="11" fill="#0e4429" style="animation-delay: 0.530s;" />
  <rect class="box" x="635" y="50" width="11" height="11" fill="#0e4429" style="animation-delay: 0.542s;" />
  <rect class="box" x="635" y="65" width="11" height="11" fill="#161b22" style="animation-delay: 0.554s;" />
  <rect class="box" x="635" y="80" width="11" height="11" fill="#161b22" style="animation-delay: 0.566s;" />
  <rect class="box" x="635" y="95" width="11" height="11" fill="#0e4429" style="animation-delay: 0.578s;" />
  <rect class="box" x="635" y="110" width="11" height="11" fill="#0e4429" style="animation-delay: 0.590s;" />
  <rect class="box" x="635" y="125" width="11" height="11" fill="#0e4429" style="animation-delay: 0.602s;" />
  <rect class="box" x="650" y="35" width="11" height="11" fill="#006d32" style="animation-delay: 0.542s;" />
  <rect class="box" x="650" y="50" width="11" height="11" fill="#0e4429" style="animation-delay: 0.554s;" />
  <rect class="box" x="650" y="65" width="11" height="11" fill="#0e4429" style="animation-delay: 0.566s;" />
  <rect class="box" x="650" y="80" width="11" height="11" fill="#006d32" style="animation-delay: 0.578s;" />
  <rect class="box" x="650" y="95" width="11" height="11" fill="#006d32" style="animation-delay: 0.590s;" />
  <rect class="box" x="650" y="110" width="11" height="11" fill="#161b22" style="animation-delay: 0.602s;" />
  <rect class="box" x="650" y="125" width="11" height="11" fill="#0e4429" style="animation-delay: 0.614s;" />
  <rect class="box" x="665" y="35" width="11" height="11" fill="#0e4429" style="animation-delay: 0.554s;" />
  <rect class="box" x="665" y="50" width="11" height="11" fill="#0e4429" style="animation-delay: 0.566s;" />
  <rect class="box" x="665" y="65" width="11" height="11" fill="#161b22" style="animation-delay: 0.578s;" />
  <rect class="box" x="665" y="80" width="11" height="11" fill="#161b22" style="animation-delay: 0.590s;" />
  <rect class="box" x="665" y="95" width="11" height="11" fill="#006d32" style="animation-delay: 0.602s;" />
  <rect class="box" x="665" y="110" width="11" height="11" fill="#161b22" style="animation-delay: 0.614s;" />
  <rect class="box" x="665" y="125" width="11" height="11" fill="#161b22" style="animation-delay: 0.626s;" />
  <rect class="box" x="680" y="35" width="11" height="11" fill="#161b22" style="animation-delay: 0.566s;" />
  <rect class="box" x="680" y="50" width="11" height="11" fill="#161b22" style="animation-delay: 0.578s;" />
  <rect class="box" x="680" y="65" width="11" height="11" fill="#161b22" style="animation-delay: 0.590s;" />
  <rect class="box" x="680" y="80" width="11" height="11" fill="#0e4429" style="animation-delay: 0.602s;" />
  <rect class="box" x="680" y="95" width="11" height="11" fill="#006d32" style="animation-delay: 0.614s;" />
  <rect class="box" x="680" y="110" width="11" height="11" fill="#161b22" style="animation-delay: 0.626s;" />
  <rect class="box" x="680" y="125" width="11" height="11" fill="#161b22" style="animation-delay: 0.638s;" />
  <rect class="box" x="695" y="35" width="11" height="11" fill="#0e4429" style="animation-delay: 0.578s;" />
  <rect class="box" x="695" y="50" width="11" height="11" fill="#0e4429" style="animation-delay: 0.590s;" />
  <rect class="box" x="695" y="65" width="11" height="11" fill="#0e4429" style="animation-delay: 0.602s;" />
  <rect class="box" x="695" y="80" width="11" height="11" fill="#0e4429" style="animation-delay: 0.614s;" />
  <rect class="box" x="695" y="95" width="11" height="11" fill="#0e4429" style="animation-delay: 0.626s;" />
  <rect class="box" x="695" y="110" width="11" height="11" fill="#0e4429" style="animation-delay: 0.638s;" />
  <rect class="box" x="695" y="125" width="11" height="11" fill="#0e4429" style="animation-delay: 0.650s;" />
  <rect class="box" x="710" y="35" width="11" height="11" fill="#161b22" style="animation-delay: 0.590s;" />
  <rect class="box" x="710" y="50" width="11" height="11" fill="#0e4429" style="animation-delay: 0.602s;" />
  <rect class="box" x="710" y="65" width="11" height="11" fill="#161b22" style="animation-delay: 0.614s;" />
  <rect class="box" x="710" y="80" width="11" height="11" fill="#006d32" style="animation-delay: 0.626s;" />
  <rect class="box" x="710" y="95" width="11" height="11" fill="#0e4429" style="animation-delay: 0.638s;" />
  <rect class="box" x="710" y="110" width="11" height="11" fill="#0e4429" style="animation-delay: 0.650s;" />
  <rect class="box" x="710" y="125" width="11" height="11" fill="#0e4429" style="animation-delay: 0.662s;" />
  <rect class="box" x="725" y="35" width="11" height="11" fill="#0e4429" style="animation-delay: 0.602s;" />
  <rect class="box" x="725" y="50" width="11" height="11" fill="#0e4429" style="animation-delay: 0.614s;" />
  <rect class="box" x="725" y="65" width="11" height="11" fill="#0e4429" style="animation-delay: 0.626s;" />
  <rect class="box" x="725" y="80" width="11" height="11" fill="#0e4429" style="animation-delay: 0.638s;" />
  <rect class="box" x="725" y="95" width="11" height="11" fill="#161b22" style="animation-delay: 0.650s;" />
  <rect class="box" x="725" y="110" width="11" height="11" fill="#0e4429" style="animation-delay: 0.662s;" />
  <rect class="box" x="725" y="125" width="11" height="11" fill="#006d32" style="animation-delay: 0.674s;" />
  <rect class="box" x="740" y="35" width="11" height="11" fill="#161b22" style="animation-delay: 0.614s;" />
  <rect class="box" x="740" y="50" width="11" height="11" fill="#0e4429" style="animation-delay: 0.626s;" />
  <rect class="box" x="740" y="65" width="11" height="11" fill="#0e4429" style="animation-delay: 0.638s;" />
  <rect class="box" x="740" y="80" width="11" height="11" fill="#006d32" style="animation-delay: 0.650s;" />
  <rect class="box" x="740" y="95" width="11" height="11" fill="#0e4429" style="animation-delay: 0.662s;" />
  <rect class="box" x="740" y="110" width="11" height="11" fill="#0e4429" style="animation-delay: 0.674s;" />
  <rect class="box" x="740" y="125" width="11" height="11" fill="#0e4429" style="animation-delay: 0.686s;" />
  <rect class="box" x="755" y="35" width="11" height="11" fill="#0e4429" style="animation-delay: 0.626s;" />
  <rect class="box" x="755" y="50" width="11" height="11" fill="#26a641" style="animation-delay: 0.638s;" />
  <rect class="box" x="755" y="65" width="11" height="11" fill="#39d353" style="animation-delay: 0.650s;" />
  <rect class="box" x="755" y="80" width="11" height="11" fill="#0e4429" style="animation-delay: 0.662s;" />
  <rect class="box" x="755" y="95" width="11" height="11" fill="#006d32" style="animation-delay: 0.674s;" />
  <rect class="box" x="755" y="110" width="11" height="11" fill="#161b22" style="animation-delay: 0.686s;" />
  <rect class="box" x="755" y="125" width="11" height="11" fill="#26a641" style="animation-delay: 0.698s;" />
  <rect class="box" x="770" y="35" width="11" height="11" fill="#006d32" style="animation-delay: 0.638s;" />
  <rect class="box" x="770" y="50" width="11" height="11" fill="#0e4429" style="animation-delay: 0.650s;" />
  <rect class="box" x="770" y="65" width="11" height="11" fill="#161b22" style="animation-delay: 0.662s;" />
  <rect class="box" x="770" y="80" width="11" height="11" fill="#161b22" style="animation-delay: 0.674s;" />
  <rect class="box" x="770" y="95" width="11" height="11" fill="#0e4429" style="animation-delay: 0.686s;" />
  <rect class="box" x="770" y="110" width="11" height="11" fill="#161b22" style="animation-delay: 0.698s;" />
  <rect class="box" x="770" y="125" width="11" height="11" fill="#0e4429" style="animation-delay: 0.710s;" />
  <rect class="box" x="785" y="35" width="11" height="11" fill="#161b22" style="animation-delay: 0.650s;" />
  <rect class="box" x="785" y="50" width="11" height="11" fill="#161b22" style="animation-delay: 0.662s;" />
  <rect class="box" x="785" y="65" width="11" height="11" fill="#161b22" style="animation-delay: 0.674s;" />
  <rect class="box" x="785" y="80" width="11" height="11" fill="#161b22" style="animation-delay: 0.686s;" />
  <rect class="box" x="785" y="95" width="11" height="11" fill="#161b22" style="animation-delay: 0.698s;" />
  <rect class="box" x="785" y="110" width="11" height="11" fill="#161b22" style="animation-delay: 0.710s;" />
  <rect class="box" x="785" y="125" width="11" height="11" fill="#161b22" style="animation-delay: 0.722s;" />
  <rect class="box" x="800" y="35" width="11" height="11" fill="#006d32" style="animation-delay: 0.662s;" />
  <rect class="box" x="800" y="50" width="11" height="11" fill="#161b22" style="animation-delay: 0.674s;" />
  <rect class="box" x="800" y="65" width="11" height="11" fill="#39d353" style="animation-delay: 0.686s;" />
  <rect class="box" x="800" y="80" width="11" height="11" fill="#006d32" style="animation-delay: 0.698s;" />
  <rect class="box" x="800" y="95" width="11" height="11" fill="#0e4429" style="animation-delay: 0.710s;" />
  <rect class="box" x="800" y="110" width="11" height="11" fill="#0e4429" style="animation-delay: 0.722s;" />
  <rect class="box" x="800" y="125" width="11" height="11" fill="#0e4429" style="animation-delay: 0.734s;" />
  <rect class="box" x="815" y="35" width="11" height="11" fill="#0e4429" style="animation-delay: 0.674s;" />
  <rect class="box" x="815" y="50" width="11" height="11" fill="#0e4429" style="animation-delay: 0.686s;" />
  <text class="title-stat" x="35" y="190">526 contributions in the last year</text>
</svg>